<svg xmlns="http://www.w3.org/2000/svg" viewBox="0 0 24 24" fill="#ffffff">
  <path d="M12 2.2c3.2 0 3.6 0 4.8.1 1.2.1 2 .2 2.5.4.6.2 1 .5 1.5 1 .5.5.8.9 1 1.5.2.5.3 1.3.4 2.5.1 1.2.1 1.6.1 4.8s0 3.6-.1 4.8c-.1 1.2-.2 2-.4 2.5-.2.6-.5 1-1 1.5-.5.5-.9.8-1.5 1-.5.2-1.3.3-2.5.4-1.2.1-1.6.1-4.8.1s-3.6 0-4.8-.1c-1.2-.1-2-.2-2.5-.4-.6-.2-1-.5-1.5-1-.5-.5-.8-.9-1-1.5-.2-.5-.3-1.3-.4-2.5C2.2 15.6 2.2 15.2 2.2 12s0-3.6.1-4.8c.1-1.2.2-2 .4-2.5.2-.6.5-1 1-1.5.5-.5.9-.8 1.5-1 .5-.2 1.3-.3 2.5-.4C8.4 2.2 8.8 2.2 12 2.2m0-2.2C8.7 0 8.3 0 7.1.1 5.9.2 4.8.4 4 .7 3.2 1 2.6 1.4 2 2S1 3.2.7 4c-.3.8-.5 1.9-.6 3.1C0 8.3 0 8.7 0 12s0 3.7.1 4.9c.1 1.2.3 2.3.6 3.1.3.8.7 1.4 1.3 2 .6.6 1.2 1 2 1.3.8.3 1.9.5 3.1.6 1.2.1 1.6.1 4.9.1s3.7 0 4.9-.1c1.2-.1 2.3-.3 3.1-.6.8-.3 1.4-.7 2-1.3.6-.6 1-1.2 1.3-2 .3-.8.5-1.9.6-3.1.1-1.2.1-1.6.1-4.9s0-3.7-.1-4.9c-.1-1.2-.3-2.3-.6-3.1-.3-.8-.7-1.4-1.3-2-.6-.6-1.2-1-2-1.3C19.2.4 18.1.2 16.9.1 15.7 0 15.3 0 12 0z"/>
  <path d="M12 5.8a6.2 6.2 0 1 0 0 12.4 6.2 6.2 0 0 0 0-12.4zm0 10.2a4 4 0 1 1 0-8 4 4 0 0 1 0 8zm6.4-11.6a1.44 1.44 0 1 1-2.88 0 1.44 1.44 0 0 1 2.88 0z"/>
</svg>