<svg xmlns="http://www.w3.org/2000/svg" viewBox="0 0 24 24" fill="#ffffff">
  <path d="M12 2C6.49 2 2 6.03 2 11.04c0 1.69.48 3.26 1.31 4.61-.05.48-.24 1.39-.97 2.36-.21.29-.19.68.06.95a.682.682 0 0 0 .95.06c1.01-.75 1.97-1.04 2.66-1.11C7.79 19.61 9.81 20.5 12 20.5c5.51 0 10-4.03 10-9.04S17.51 2 12 2zm0 16c-1.54 0-2.97-.5-4.13-1.34a.694.694 0 0 0-.52-.11c-.23.03-.44.05-.64.1.33-.62.53-1.24.6-1.67.05-.29-.01-.58-.18-.83A6.925 6.925 0 0 1 5.4 11c0-3.88 3.58-7.04 8-7.04s8 3.16 8 7.04-3.58 7.04-8 7.04z"/>
</svg>