<svg xmlns="http://www.w3.org/2000/svg" viewBox="0 0 32 32" fill="#ffffff">
  <path d="M16.003 2.998a13.002 13.002 0 0 0-11.3 19.675l-2.118 5.93 6.095-2.002A13 13 0 1 0 16.003 2.998zm0 23.828a10.828 10.828 0 0 1-5.517-1.528l-.396-.236-3.618 1.187 1.176-3.377-.257-.408a10.827 10.827 0 1 1 8.612 4.362zm6.01-8.084c-.328-.164-1.938-.956-2.24-1.064-.302-.109-.52-.164-.738.164-.219.328-.846 1.064-1.038 1.283-.191.219-.383.246-.71.082-.328-.164-1.384-.51-2.637-1.624-.975-.869-1.633-1.94-1.825-2.268-.191-.328-.021-.505.146-.669.15-.148.328-.383.492-.574.164-.191.219-.328.328-.547.11-.219.055-.41-.027-.574-.082-.164-.738-1.783-1.011-2.443-.266-.639-.537-.553-.738-.564l-.628-.011c-.219 0-.574.082-.874.383-.3.301-1.148 1.121-1.148 2.736 0 1.615 1.176 3.177 1.339 3.396.164.219 2.321 3.539 5.624 4.96.786.34 1.4.543 1.878.696.789.25 1.508.215 2.075.131.633-.094 1.938-.79 2.214-1.553.273-.762.273-1.415.191-1.553-.082-.137-.3-.219-.628-.383z"/>
</svg>